<?xml version="1.0" encoding="utf-8"?>

<!DOCTYPE svg PUBLIC "-//W3C//DTD SVG 1.1//EN" "http://www.w3.org/Graphics/SVG/1.1/DTD/svg11.dtd">
<svg version="1.1" id="Layer_1" xmlns="http://www.w3.org/2000/svg" xmlns:xlink="http://www.w3.org/1999/xlink" x="0px" y="0px"
	 viewBox="0 0 2626 1552.8033" enable-background="new 0 0 2626 1552.8033" xml:space="preserve">
<g>
	<path fill="#FE00FF" d="M259.0076,1535.6007c-38.2116-250.6569-9.6322-514.8513,93.3153-759.199
		c54.6366-129.5177,132.5789-259.7129,242.1426-379.5995c59.7925-65.3865,131.2407-130.2677,218.8477-189.7997
		c48.2984-32.8057,103.1756-65.1532,167.0616-94.8999c35.2346-16.3998,74.2769-32.513,118.3996-47.4499
		c50.1355-16.9654,111.1451-34.695,194.5231-47.4499c-1.3135,0-2.627,0-3.9406,0
		c-99.8641,12.7308-173.1376,30.4486-233.4277,47.4499c-52.8428,14.9075-99.713,31.0172-142.0794,47.4499
		c-76.3739,29.6345-142.2991,61.9714-200.474,94.8999C608.9766,266.1216,522.965,331.0006,450.7585,396.8022
		C320.7872,515.3165,226.2724,645.8547,160.1874,776.4017c-121.9546,241.218-157.6433,509.5751-111.9784,759.199
		C118.4752,1535.6007,188.7414,1535.6007,259.0076,1535.6007z"/>
	<path fill="#F60E00" d="M469.8061,1535.6007c-30.6738-251.5142-8.667-511.9991,74.6523-759.199
		c43.3863-128.5607,104.8993-258.121,193.7141-379.5995c47.4749-64.8956,104.3117-129.6893,175.0782-189.7997
		c38.4337-32.6316,82.2368-64.9764,133.6494-94.8999c58.3754-33.9591,132.9935-72.4403,250.3381-94.8999
		c-1.3136,0-2.6271,0-3.9406,0c-83.3779,12.755-144.3876,30.4846-194.5231,47.4499
		c-44.1227,14.9369-83.165,31.0501-118.3996,47.4499c-63.886,29.7467-118.7632,62.0942-167.0616,94.8999
		c-87.607,59.5321-159.0552,124.4132-218.8477,189.7997C484.9018,516.6888,406.9595,646.884,352.3229,776.4017
		c-102.9475,244.3478-131.5269,508.5422-93.3153,759.199C329.2737,1535.6007,399.5399,1535.6007,469.8061,1535.6007z"/>
	<path fill="#FFEE00" d="M680.6046,1535.6007c-23.0671-252.1888-7.1143-509.5701,55.9892-759.199
		c32.3297-127.731,77.7295-256.3976,145.2855-379.5995c35.3082-64.3524,77.5353-128.8983,131.3087-189.7997
		c28.611-32.3891,61.3067-64.6886,100.237-94.8999c43.303-33.5879,98.5947-72.1467,187.7535-94.8999c-1.3135,0-2.627,0-3.9404,0
		c-117.3446,22.4595-191.9628,60.9408-250.3381,94.8999c-51.4126,29.9235-95.2157,62.2683-133.6494,94.8999
		c-70.7665,60.1104-127.6033,124.9041-175.0782,189.7997c-88.8148,121.4785-150.3278,251.0388-193.7141,379.5995
		c-83.3193,247.1999-105.3261,507.6849-74.6523,759.199C540.0722,1535.6007,610.3384,1535.6007,680.6046,1535.6007z"/>
	<path fill="#68E616" d="M891.403,1535.6007c-15.4077-252.6749-5.0568-507.7073,37.3261-759.199
		c21.4442-127.0853,51.2188-254.754,96.8571-379.5995c23.345-63.8227,51.1094-127.9115,87.5391-189.7997
		c38.437-65.2592,85.1624-148.8301,191.9938-189.7998c-1.3135,0-2.6271,0-3.9406,0
		c-89.1588,22.7531-144.4506,61.312-187.7535,94.8999c-38.9303,30.2113-71.626,62.5107-100.237,94.8999
		c-53.7734,60.9015-96.0005,125.4473-131.3087,189.7997c-67.556,123.2019-112.9558,251.8686-145.2855,379.5995
		c-63.1035,249.629-79.0563,507.0102-55.9892,759.199C750.8707,1535.6007,821.1368,1535.6007,891.403,1535.6007z"/>
	<path fill="#0093FF" d="M1102.2015,1535.6007c-7.7128-252.9683-2.6273-506.5338,18.6631-759.199
		c10.6874-126.6744,25.3851-253.5269,48.4285-379.5995c11.5988-63.4196,25.2737-126.9569,43.7695-189.7997
		c18.8156-63.8906,33.1421-141.5904,95.9968-189.7998c-1.3135,0-2.627,0-3.9404,0
		c-106.8314,40.9696-153.5568,124.5406-191.9938,189.7998c-36.4297,61.8883-64.1941,125.9771-87.5391,189.7997
		c-45.6382,124.8456-75.4128,252.5142-96.8571,379.5995c-42.3829,251.4918-52.7338,506.5241-37.3261,759.199
		C961.6692,1535.6007,1031.9353,1535.6007,1102.2015,1535.6007z"/>
	<path fill="#00FFFF" d="M1313,1535.6007c0-506.1327,0-1012.2654,0-1518.3981c-1.3135,0-2.627,0-3.9406,0
		c-62.8547,48.2094-77.1813,125.9091-95.9968,189.7998c-18.4958,62.8428-32.1708,126.3801-43.7695,189.7997
		c-23.0433,126.0726-37.7411,252.9251-48.4285,379.5995c-21.2904,252.6652-26.3759,506.2308-18.6631,759.199
		C1172.4677,1535.6007,1242.7339,1535.6007,1313,1535.6007z"/>
	<path fill="#FF0000" d="M1523.7985,1535.6007c7.7128-252.9683,2.6273-506.5338-18.663-759.199
		c-10.6875-126.6744-25.3851-253.5269-48.4286-379.5995c-11.5988-63.4196-25.2737-126.9569-43.7695-189.7997
		c-18.8154-63.8906-33.1421-141.5904-95.9968-189.7998c-1.3136,0-2.6271,0-3.9406,0c0,506.1327,0,1012.2653,0,1518.3981
		C1383.2661,1535.6007,1453.5323,1535.6007,1523.7985,1535.6007z"/>
	<path fill="#FFFF00" d="M1734.597,1535.6007c15.4076-252.6749,5.0568-507.7073-37.3262-759.199
		c-21.4442-127.0853-51.2189-254.754-96.8571-379.5995c-23.345-63.8227-51.1094-127.9115-87.5391-189.7997
		c-38.437-65.2592-85.1624-148.8301-191.9938-189.7998c-1.3135,0-2.627,0-3.9404,0
		c62.8547,48.2094,77.1814,125.9091,95.9968,189.7998c18.4958,62.8428,32.1708,126.3801,43.7695,189.7997
		c23.0435,126.0726,37.7411,252.9251,48.4286,379.5995c21.2903,252.6652,26.3757,506.2308,18.663,759.199
		C1594.0647,1535.6007,1664.3308,1535.6007,1734.597,1535.6007z"/>
	<path fill="#0000FF" d="M1945.3955,1535.6007c23.067-252.1888,7.1143-509.5701-55.9893-759.199
		c-32.3297-127.731-77.7295-256.3976-145.2855-379.5995c-35.3081-64.3524-77.5353-128.8983-131.3086-189.7997
		c-28.6111-32.3891-61.3068-64.6886-100.2371-94.8999c-43.303-33.5879-98.5947-72.1467-187.7535-94.8999c-1.3135,0-2.627,0-3.9406,0
		c106.8314,40.9696,153.5568,124.5406,191.9938,189.7998c36.4297,61.8883,64.1941,125.9771,87.5391,189.7997
		c45.6382,124.8456,75.4128,252.5142,96.8571,379.5995c42.3829,251.4918,52.7338,506.5241,37.3262,759.199
		C1804.8632,1535.6007,1875.1293,1535.6007,1945.3955,1535.6007z"/>
	<path fill="#C7B299" d="M2156.1938,1535.6007c30.6738-251.5142,8.6672-511.9991-74.6521-759.199
		c-43.3864-128.5607-104.8993-258.121-193.7141-379.5995c-47.4749-64.8956-104.3116-129.6893-175.0781-189.7997
		c-38.4337-32.6316-82.2368-64.9764-133.6493-94.8999c-58.3754-33.9591-132.9937-72.4403-250.3381-94.8999
		c-1.3136,0-2.6271,0-3.9406,0c89.1588,22.7531,144.4506,61.312,187.7535,94.8999c38.9303,30.2113,71.626,62.5107,100.2371,94.8999
		c53.7733,60.9015,96.0005,125.4473,131.3086,189.7997c67.556,123.2019,112.9558,251.8686,145.2855,379.5995
		c63.1035,249.629,79.0563,507.0102,55.9893,759.199C2015.6616,1535.6007,2085.9277,1535.6007,2156.1938,1535.6007z"/>
	<path fill="#FC2323" d="M2366.9924,1535.6007c38.2117-250.6569,9.6321-514.8513-93.3152-759.199
		c-54.6367-129.5177-132.5791-259.7129-242.1427-379.5995c-59.7925-65.3865-131.2407-130.2677-218.8477-189.7997
		c-48.2985-32.8057-103.1757-65.1532-167.0616-94.8999c-35.2346-16.3998-74.277-32.513-118.3995-47.4499
		c-50.1356-16.9654-111.1451-34.695-194.5232-47.4499c-1.3135,0-2.627,0-3.9404,0
		c117.3445,22.4595,191.9628,60.9408,250.3381,94.8999c51.4125,29.9235,95.2156,62.2683,133.6493,94.8999
		c70.7665,60.1104,127.6033,124.9041,175.0781,189.7997c88.8148,121.4785,150.3278,251.0388,193.7141,379.5995
		c83.3193,247.1999,105.3259,507.6849,74.6521,759.199C2226.4602,1535.6007,2296.7263,1535.6007,2366.9924,1535.6007z"/>
	<path fill="#0076FF" d="M2577.791,1535.6007c45.6648-249.6239,9.9761-517.981-111.9785-759.199
		c-66.085-130.5469-160.5996-261.0852-290.571-379.5995c-72.2065-65.8015-158.218-130.6806-262.6172-189.7997
		c-58.1749-32.9284-124.1001-65.2654-200.474-94.8999c-42.3665-16.4328-89.2366-32.5424-142.0795-47.4499
		c-60.2902-17.0013-133.5636-34.7191-233.4277-47.4499c-1.3135,0-2.6271,0-3.9406,0
		c83.3781,12.755,144.3876,30.4846,194.5232,47.4499c44.1226,14.9369,83.1649,31.0501,118.3995,47.4499
		c63.886,29.7467,118.7632,62.0942,167.0616,94.8999c87.6069,59.5321,159.0552,124.4132,218.8477,189.7997
		c109.5636,119.8866,187.506,250.0818,242.1427,379.5995c102.9473,244.3478,131.5269,508.5422,93.3152,759.199
		C2437.2585,1535.6007,2507.5249,1535.6007,2577.791,1535.6007z"/>
</g>
</svg>
